<?xml version="1.0" encoding="UTF-8" standalone="no"?>
<!-- Created with Inkscape (http://www.inkscape.org/) -->

<svg
   width="512"
   height="512"
   viewBox="0 0 512 512"
   version="1.1"
   id="svg1"
   inkscape:version="1.3 (0e150ed6c4, 2023-07-21)"
   sodipodi:docname="AudioManager.svg"
   xmlns:inkscape="http://www.inkscape.org/namespaces/inkscape"
   xmlns:sodipodi="http://sodipodi.sourceforge.net/DTD/sodipodi-0.dtd"
   xmlns="http://www.w3.org/2000/svg"
   xmlns:svg="http://www.w3.org/2000/svg">
  <sodipodi:namedview
     id="namedview1"
     pagecolor="#505050"
     bordercolor="#eeeeee"
     borderopacity="1"
     inkscape:showpageshadow="0"
     inkscape:pageopacity="0"
     inkscape:pagecheckerboard="0"
     inkscape:deskcolor="#505050"
     inkscape:document-units="px"
     inkscape:zoom="1.1228082"
     inkscape:cx="246.70286"
     inkscape:cy="239.13255"
     inkscape:window-width="1920"
     inkscape:window-height="1009"
     inkscape:window-x="1912"
     inkscape:window-y="-8"
     inkscape:window-maximized="1"
     inkscape:current-layer="layer1" />
  <defs
     id="defs1" />
  <g
     inkscape:label="Layer 1"
     inkscape:groupmode="layer"
     id="layer1">
    <rect
       style="fill:#808080;stroke:#323232;stroke-width:27.0019"
       id="rect1"
       width="324.28964"
       height="469.13586"
       x="95.114716"
       y="23.321358"
       rx="67.625038"
       ry="97.033791" />
    <circle
       style="fill:#808080;stroke:#323232;stroke-width:32"
       id="path1"
       cx="259.46371"
       cy="365.26447"
       r="93.205414" />
    <circle
       style="fill:#808080;stroke:#323232;stroke-width:32"
       id="path1-4"
       cx="260.50677"
       cy="150.82904"
       r="93.205414" />
    <path
       sodipodi:type="spiral"
       style="fill:none;fill-rule:evenodd;stroke:#313131;stroke-width:17.2;stroke-dasharray:none;stroke-opacity:1"
       id="path2"
       sodipodi:cx="116.50677"
       sodipodi:cy="244.9791"
       sodipodi:expansion="1"
       sodipodi:revolution="3"
       sodipodi:radius="131.03075"
       sodipodi:argument="-18.353661"
       sodipodi:t0="0"
       d="m 116.50677,244.9791 c 5.77831,3.12597 -1.36294,9.33129 -5.19558,9.60393 -10.38622,0.73883 -15.669188,-11.27286 -14.012286,-19.99509 2.963806,-15.60203 20.645936,-22.59338 34.794606,-18.42064 20.76374,6.12366 29.6725,30.12799 22.82898,49.59412 -9.12133,25.94528 -39.64635,36.81462 -64.393624,27.23733 C 59.386948,280.94671 46.540139,243.81732 58.883177,213.80561 73.832249,177.45742 117.609,162.62438 152.87583,177.75157 c 41.56074,17.82687 58.38526,68.27599 40.46239,108.79217 -20.69266,46.77752 -77.83001,65.597 -123.591674,44.87074 C 17.749237,307.86399 -3.0675755,244.02773 20.467449,193.02329 46.87019,135.80403 117.41293,112.98814 173.65815,139.33585 c 62.44285,29.25095 87.25913,106.5057 58.0958,167.99021"
       transform="matrix(0.74336344,0,0,0.74336344,175.64666,-24.306849)" />
    <path
       sodipodi:type="spiral"
       style="fill:none;fill-rule:evenodd;stroke:#313131;stroke-width:17.2;stroke-dasharray:none;stroke-opacity:1"
       id="path2-3"
       sodipodi:cx="116.50677"
       sodipodi:cy="244.9791"
       sodipodi:expansion="1"
       sodipodi:revolution="3"
       sodipodi:radius="131.03075"
       sodipodi:argument="-18.353661"
       sodipodi:t0="0"
       d="m 116.50677,244.9791 c 5.77831,3.12597 -1.36294,9.33129 -5.19558,9.60393 -10.38622,0.73883 -15.669188,-11.27286 -14.012286,-19.99509 2.963806,-15.60203 20.645936,-22.59338 34.794606,-18.42064 20.76374,6.12366 29.6725,30.12799 22.82898,49.59412 -9.12133,25.94528 -39.64635,36.81462 -64.393624,27.23733 C 59.386948,280.94671 46.540139,243.81732 58.883177,213.80561 73.832249,177.45742 117.609,162.62438 152.87583,177.75157 c 41.56074,17.82687 58.38526,68.27599 40.46239,108.79217 -20.69266,46.77752 -77.83001,65.597 -123.591674,44.87074 C 17.749237,307.86399 -3.0675755,244.02773 20.467449,193.02329 46.87019,135.80403 117.41293,112.98814 173.65815,139.33585 c 62.44285,29.25095 87.25913,106.5057 58.0958,167.99021"
       transform="matrix(0.74336344,0,0,0.74336344,179.08472,185.92832)" />
  </g>
</svg>
